<svg width="240" height="240" viewBox="0 0 240 240" fill="none" xmlns="http://www.w3.org/2000/svg">
<rect width="240" height="240" fill="white"/>
<path d="M28 20H20V28H28V20Z" fill="#006DF0"/>
<path d="M28 27.9995H20V35.9995H28V27.9995Z" fill="#006DF0"/>
<path d="M28 36H20V44H28V36Z" fill="#006DF0"/>
<path d="M28 44.0005H20V52.0005H28V44.0005Z" fill="#006DF0"/>
<path d="M28 52.0005H20V60.0005H28V52.0005Z" fill="#006DF0"/>
<path d="M28 60H20V68H28V60Z" fill="#006DF0"/>
<path d="M28 67.9995H20V75.9995H28V67.9995Z" fill="#006DF0"/>
<path d="M28 84H20V92H28V84Z" fill="#006DF0"/>
<path d="M28 100H20V108H28V100Z" fill="#006DF0"/>
<path d="M28 108H20V116H28V108Z" fill="#006DF0"/>
<path d="M28 164H20V172H28V164Z" fill="#006DF0"/>
<path d="M28 172H20V180H28V172Z" fill="#006DF0"/>
<path d="M28 180H20V188H28V180Z" fill="#006DF0"/>
<path d="M28 188H20V196H28V188Z" fill="#006DF0"/>
<path d="M28 196H20V204H28V196Z" fill="#006DF0"/>
<path d="M28 204H20V212H28V204Z" fill="#006DF0"/>
<path d="M28 212H20V220H28V212Z" fill="#006DF0"/>
<path d="M36 20H28V28H36V20Z" fill="#006DF0"/>
<path d="M36 67.9995H28V75.9995H36V67.9995Z" fill="#006DF0"/>
<path d="M36 84H28V92H36V84Z" fill="#006DF0"/>
<path d="M36 100H28V108H36V100Z" fill="#006DF0"/>
<path d="M36 108H28V116H36V108Z" fill="#006DF0"/>
<path d="M36 124H28V132H36V124Z" fill="#006DF0"/>
<path d="M36 140H28V148H36V140Z" fill="#006DF0"/>
<path d="M36 148H28V156H36V148Z" fill="#006DF0"/>
<path d="M36 164H28V172H36V164Z" fill="#006DF0"/>
<path d="M36 212H28V220H36V212Z" fill="#006DF0"/>
<path d="M44 20H36V28H44V20Z" fill="#006DF0"/>
<path d="M44 36H36V44H44V36Z" fill="#006DF0"/>
<path d="M44 44.0005H36V52.0005H44V44.0005Z" fill="#006DF0"/>
<path d="M44 52.0005H36V60.0005H44V52.0005Z" fill="#006DF0"/>
<path d="M44 67.9995H36V75.9995H44V67.9995Z" fill="#006DF0"/>
<path d="M44 140H36V148H44V140Z" fill="#006DF0"/>
<path d="M44 164H36V172H44V164Z" fill="#006DF0"/>
<path d="M44 180H36V188H44V180Z" fill="#006DF0"/>
<path d="M44 188H36V196H44V188Z" fill="#006DF0"/>
<path d="M44 196H36V204H44V196Z" fill="#006DF0"/>
<path d="M44 212H36V220H44V212Z" fill="#006DF0"/>
<path d="M52 20H44V28H52V20Z" fill="#006DF0"/>
<path d="M52 36H44V44H52V36Z" fill="#006DF0"/>
<path d="M52 44.0005H44V52.0005H52V44.0005Z" fill="#006DF0"/>
<path d="M52 52.0005H44V60.0005H52V52.0005Z" fill="#006DF0"/>
<path d="M52 67.9995H44V75.9995H52V67.9995Z" fill="#006DF0"/>
<path d="M52 84H44V92H52V84Z" fill="#006DF0"/>
<path d="M52 108H44V116H52V108Z" fill="#006DF0"/>
<path d="M52 116H44V124H52V116Z" fill="#006DF0"/>
<path d="M52 140H44V148H52V140Z" fill="#006DF0"/>
<path d="M52 164H44V172H52V164Z" fill="#006DF0"/>
<path d="M52 180H44V188H52V180Z" fill="#006DF0"/>
<path d="M52 188H44V196H52V188Z" fill="#006DF0"/>
<path d="M52 196H44V204H52V196Z" fill="#006DF0"/>
<path d="M52 212H44V220H52V212Z" fill="#006DF0"/>
<path d="M60 20H52V28H60V20Z" fill="#006DF0"/>
<path d="M60 36H52V44H60V36Z" fill="#006DF0"/>
<path d="M60 44.0005H52V52.0005H60V44.0005Z" fill="#006DF0"/>
<path d="M60 52.0005H52V60.0005H60V52.0005Z" fill="#006DF0"/>
<path d="M60 67.9995H52V75.9995H60V67.9995Z" fill="#006DF0"/>
<path d="M60 84H52V92H60V84Z" fill="#006DF0"/>
<path d="M60 100H52V108H60V100Z" fill="#006DF0"/>
<path d="M60 116H52V124H60V116Z" fill="#006DF0"/>
<path d="M60 124H52V132H60V124Z" fill="#006DF0"/>
<path d="M60 132H52V140H60V132Z" fill="#006DF0"/>
<path d="M60 140H52V148H60V140Z" fill="#006DF0"/>
<path d="M60 164H52V172H60V164Z" fill="#006DF0"/>
<path d="M60 180H52V188H60V180Z" fill="#006DF0"/>
<path d="M60 188H52V196H60V188Z" fill="#006DF0"/>
<path d="M60 196H52V204H60V196Z" fill="#006DF0"/>
<path d="M60 212H52V220H60V212Z" fill="#006DF0"/>
<path d="M68 20H60V28H68V20Z" fill="#006DF0"/>
<path d="M68 67.9995H60V75.9995H68V67.9995Z" fill="#006DF0"/>
<path d="M68 116H60V124H68V116Z" fill="#006DF0"/>
<path d="M68 148H60V156H68V148Z" fill="#006DF0"/>
<path d="M68 164H60V172H68V164Z" fill="#006DF0"/>
<path d="M68 212H60V220H68V212Z" fill="#006DF0"/>
<path d="M76 20H68V28H76V20Z" fill="#006DF0"/>
<path d="M76 27.9995H68V35.9995H76V27.9995Z" fill="#006DF0"/>
<path d="M76 36H68V44H76V36Z" fill="#006DF0"/>
<path d="M76 44.0005H68V52.0005H76V44.0005Z" fill="#006DF0"/>
<path d="M76 52.0005H68V60.0005H76V52.0005Z" fill="#006DF0"/>
<path d="M76 60H68V68H76V60Z" fill="#006DF0"/>
<path d="M76 67.9995H68V75.9995H76V67.9995Z" fill="#006DF0"/>
<path d="M76 84H68V92H76V84Z" fill="#006DF0"/>
<path d="M76 100H68V108H76V100Z" fill="#006DF0"/>
<path d="M76 116H68V124H76V116Z" fill="#006DF0"/>
<path d="M76 132H68V140H76V132Z" fill="#006DF0"/>
<path d="M76 148H68V156H76V148Z" fill="#006DF0"/>
<path d="M76 164H68V172H76V164Z" fill="#006DF0"/>
<path d="M76 172H68V180H76V172Z" fill="#006DF0"/>
<path d="M76 180H68V188H76V180Z" fill="#006DF0"/>
<path d="M76 188H68V196H76V188Z" fill="#006DF0"/>
<path d="M76 196H68V204H76V196Z" fill="#006DF0"/>
<path d="M76 204H68V212H76V204Z" fill="#006DF0"/>
<path d="M76 212H68V220H76V212Z" fill="#006DF0"/>
<path d="M84 92.0005H76V100H84V92.0005Z" fill="#006DF0"/>
<path d="M84 100H76V108H84V100Z" fill="#006DF0"/>
<path d="M84 116H76V124H84V116Z" fill="#006DF0"/>
<path d="M84 140H76V148H84V140Z" fill="#006DF0"/>
<path d="M84 148H76V156H84V148Z" fill="#006DF0"/>
<path d="M92 20H84V28H92V20Z" fill="#006DF0"/>
<path d="M92 67.9995H84V75.9995H92V67.9995Z" fill="#006DF0"/>
<path d="M92 76H84V84H92V76Z" fill="#006DF0"/>
<path d="M92 100H84V108H92V100Z" fill="#006DF0"/>
<path d="M92 108H84V116H92V108Z" fill="#006DF0"/>
<path d="M92 124H84V132H92V124Z" fill="#006DF0"/>
<path d="M92 140H84V148H92V140Z" fill="#006DF0"/>
<path d="M92 148H84V156H92V148Z" fill="#006DF0"/>
<path d="M92 156H84V164H92V156Z" fill="#006DF0"/>
<path d="M92 180H84V188H92V180Z" fill="#006DF0"/>
<path d="M92 188H84V196H92V188Z" fill="#006DF0"/>
<path d="M92 204H84V212H92V204Z" fill="#006DF0"/>
<path d="M92 212H84V220H92V212Z" fill="#006DF0"/>
<path d="M100 20H92V28H100V20Z" fill="#006DF0"/>
<path d="M100 36H92V44H100V36Z" fill="#006DF0"/>
<path d="M100 60H92V68H100V60Z" fill="#006DF0"/>
<path d="M100 76H92V84H100V76Z" fill="#006DF0"/>
<path d="M100 84H92V92H100V84Z" fill="#006DF0"/>
<path d="M100 100H92V108H100V100Z" fill="#006DF0"/>
<path d="M100 116H92V124H100V116Z" fill="#006DF0"/>
<path d="M100 124H92V132H100V124Z" fill="#006DF0"/>
<path d="M100 140H92V148H100V140Z" fill="#006DF0"/>
<path d="M100 148H92V156H100V148Z" fill="#006DF0"/>
<path d="M100 164H92V172H100V164Z" fill="#006DF0"/>
<path d="M100 172H92V180H100V172Z" fill="#006DF0"/>
<path d="M100 180H92V188H100V180Z" fill="#006DF0"/>
<path d="M108 20H100V28H108V20Z" fill="#006DF0"/>
<path d="M108 44.0005H100V52.0005H108V44.0005Z" fill="#006DF0"/>
<path d="M108 52.0005H100V60.0005H108V52.0005Z" fill="#006DF0"/>
<path d="M108 67.9995H100V75.9995H108V67.9995Z" fill="#006DF0"/>
<path d="M108 92.0005H100V100H108V92.0005Z" fill="#006DF0"/>
<path d="M108 116H100V124H108V116Z" fill="#006DF0"/>
<path d="M108 124H100V132H108V124Z" fill="#006DF0"/>
<path d="M108 140H100V148H108V140Z" fill="#006DF0"/>
<path d="M108 180H100V188H108V180Z" fill="#006DF0"/>
<path d="M108 196H100V204H108V196Z" fill="#006DF0"/>
<path d="M108 204H100V212H108V204Z" fill="#006DF0"/>
<path d="M116 20H108V28H116V20Z" fill="#006DF0"/>
<path d="M116 27.9995H108V35.9995H116V27.9995Z" fill="#006DF0"/>
<path d="M116 36H108V44H116V36Z" fill="#006DF0"/>
<path d="M116 44.0005H108V52.0005H116V44.0005Z" fill="#006DF0"/>
<path d="M116 52.0005H108V60.0005H116V52.0005Z" fill="#006DF0"/>
<path d="M116 60H108V68H116V60Z" fill="#006DF0"/>
<path d="M116 148H108V156H116V148Z" fill="#006DF0"/>
<path d="M116 156H108V164H116V156Z" fill="#006DF0"/>
<path d="M116 172H108V180H116V172Z" fill="#006DF0"/>
<path d="M116 180H108V188H116V180Z" fill="#006DF0"/>
<path d="M116 196H108V204H116V196Z" fill="#006DF0"/>
<path d="M116 204H108V212H116V204Z" fill="#006DF0"/>
<path d="M116 212H108V220H116V212Z" fill="#006DF0"/>
<path d="M124 27.9995H116V35.9995H124V27.9995Z" fill="#006DF0"/>
<path d="M124 52.0005H116V60.0005H124V52.0005Z" fill="#006DF0"/>
<path d="M124 67.9995H116V75.9995H124V67.9995Z" fill="#006DF0"/>
<path d="M124 76H116V84H124V76Z" fill="#006DF0"/>
<path d="M124 84H116V92H124V84Z" fill="#006DF0"/>
<path d="M124 100H116V108H124V100Z" fill="#006DF0"/>
<path d="M124 124H116V132H124V124Z" fill="#006DF0"/>
<path d="M124 140H116V148H124V140Z" fill="#006DF0"/>
<path d="M124 148H116V156H124V148Z" fill="#006DF0"/>
<path d="M124 164H116V172H124V164Z" fill="#006DF0"/>
<path d="M124 180H116V188H124V180Z" fill="#006DF0"/>
<path d="M124 188H116V196H124V188Z" fill="#006DF0"/>
<path d="M132 20H124V28H132V20Z" fill="#006DF0"/>
<path d="M132 36H124V44H132V36Z" fill="#006DF0"/>
<path d="M132 44.0005H124V52.0005H132V44.0005Z" fill="#006DF0"/>
<path d="M132 52.0005H124V60.0005H132V52.0005Z" fill="#006DF0"/>
<path d="M132 60H124V68H132V60Z" fill="#006DF0"/>
<path d="M132 76H124V84H132V76Z" fill="#006DF0"/>
<path d="M132 124H124V132H132V124Z" fill="#006DF0"/>
<path d="M132 148H124V156H132V148Z" fill="#006DF0"/>
<path d="M132 156H124V164H132V156Z" fill="#006DF0"/>
<path d="M132 172H124V180H132V172Z" fill="#006DF0"/>
<path d="M132 196H124V204H132V196Z" fill="#006DF0"/>
<path d="M140 20H132V28H140V20Z" fill="#006DF0"/>
<path d="M140 27.9995H132V35.9995H140V27.9995Z" fill="#006DF0"/>
<path d="M140 36H132V44H140V36Z" fill="#006DF0"/>
<path d="M140 52.0005H132V60.0005H140V52.0005Z" fill="#006DF0"/>
<path d="M140 67.9995H132V75.9995H140V67.9995Z" fill="#006DF0"/>
<path d="M140 84H132V92H140V84Z" fill="#006DF0"/>
<path d="M140 92.0005H132V100H140V92.0005Z" fill="#006DF0"/>
<path d="M140 108H132V116H140V108Z" fill="#006DF0"/>
<path d="M140 140H132V148H140V140Z" fill="#006DF0"/>
<path d="M140 148H132V156H140V148Z" fill="#006DF0"/>
<path d="M140 172H132V180H140V172Z" fill="#006DF0"/>
<path d="M140 180H132V188H140V180Z" fill="#006DF0"/>
<path d="M140 196H132V204H140V196Z" fill="#006DF0"/>
<path d="M148 36H140V44H148V36Z" fill="#006DF0"/>
<path d="M148 76H140V84H148V76Z" fill="#006DF0"/>
<path d="M148 84H140V92H148V84Z" fill="#006DF0"/>
<path d="M148 92.0005H140V100H148V92.0005Z" fill="#006DF0"/>
<path d="M148 100H140V108H148V100Z" fill="#006DF0"/>
<path d="M148 108H140V116H148V108Z" fill="#006DF0"/>
<path d="M148 116H140V124H148V116Z" fill="#006DF0"/>
<path d="M148 124H140V132H148V124Z" fill="#006DF0"/>
<path d="M148 132H140V140H148V132Z" fill="#006DF0"/>
<path d="M148 148H140V156H148V148Z" fill="#006DF0"/>
<path d="M148 156H140V164H148V156Z" fill="#006DF0"/>
<path d="M148 172H140V180H148V172Z" fill="#006DF0"/>
<path d="M148 180H140V188H148V180Z" fill="#006DF0"/>
<path d="M148 188H140V196H148V188Z" fill="#006DF0"/>
<path d="M148 204H140V212H148V204Z" fill="#006DF0"/>
<path d="M156 27.9995H148V35.9995H156V27.9995Z" fill="#006DF0"/>
<path d="M156 36H148V44H156V36Z" fill="#006DF0"/>
<path d="M156 44.0005H148V52.0005H156V44.0005Z" fill="#006DF0"/>
<path d="M156 52.0005H148V60.0005H156V52.0005Z" fill="#006DF0"/>
<path d="M156 60H148V68H156V60Z" fill="#006DF0"/>
<path d="M156 67.9995H148V75.9995H156V67.9995Z" fill="#006DF0"/>
<path d="M156 100H148V108H156V100Z" fill="#006DF0"/>
<path d="M156 108H148V116H156V108Z" fill="#006DF0"/>
<path d="M156 116H148V124H156V116Z" fill="#006DF0"/>
<path d="M156 124H148V132H156V124Z" fill="#006DF0"/>
<path d="M156 132H148V140H156V132Z" fill="#006DF0"/>
<path d="M156 148H148V156H156V148Z" fill="#006DF0"/>
<path d="M156 156H148V164H156V156Z" fill="#006DF0"/>
<path d="M156 164H148V172H156V164Z" fill="#006DF0"/>
<path d="M156 172H148V180H156V172Z" fill="#006DF0"/>
<path d="M156 180H148V188H156V180Z" fill="#006DF0"/>
<path d="M156 188H148V196H156V188Z" fill="#006DF0"/>
<path d="M156 212H148V220H156V212Z" fill="#006DF0"/>
<path d="M164 92.0005H156V100H164V92.0005Z" fill="#006DF0"/>
<path d="M164 100H156V108H164V100Z" fill="#006DF0"/>
<path d="M164 116H156V124H164V116Z" fill="#006DF0"/>
<path d="M164 132H156V140H164V132Z" fill="#006DF0"/>
<path d="M164 140H156V148H164V140Z" fill="#006DF0"/>
<path d="M164 148H156V156H164V148Z" fill="#006DF0"/>
<path d="M164 180H156V188H164V180Z" fill="#006DF0"/>
<path d="M164 188H156V196H164V188Z" fill="#006DF0"/>
<path d="M164 196H156V204H164V196Z" fill="#006DF0"/>
<path d="M164 212H156V220H164V212Z" fill="#006DF0"/>
<path d="M172.001 20H164.001V28H172.001V20Z" fill="#006DF0"/>
<path d="M172.001 27.9995H164.001V35.9995H172.001V27.9995Z" fill="#006DF0"/>
<path d="M172.001 36H164.001V44H172.001V36Z" fill="#006DF0"/>
<path d="M172.001 44.0005H164.001V52.0005H172.001V44.0005Z" fill="#006DF0"/>
<path d="M172.001 52.0005H164.001V60.0005H172.001V52.0005Z" fill="#006DF0"/>
<path d="M172.001 60H164.001V68H172.001V60Z" fill="#006DF0"/>
<path d="M172.001 67.9995H164.001V75.9995H172.001V67.9995Z" fill="#006DF0"/>
<path d="M172.001 84H164.001V92H172.001V84Z" fill="#006DF0"/>
<path d="M172.001 100H164.001V108H172.001V100Z" fill="#006DF0"/>
<path d="M172.001 116H164.001V124H172.001V116Z" fill="#006DF0"/>
<path d="M172.001 140H164.001V148H172.001V140Z" fill="#006DF0"/>
<path d="M172.001 148H164.001V156H172.001V148Z" fill="#006DF0"/>
<path d="M172.001 164H164.001V172H172.001V164Z" fill="#006DF0"/>
<path d="M172.001 180H164.001V188H172.001V180Z" fill="#006DF0"/>
<path d="M172.001 188H164.001V196H172.001V188Z" fill="#006DF0"/>
<path d="M180 20H172V28H180V20Z" fill="#006DF0"/>
<path d="M180 67.9995H172V75.9995H180V67.9995Z" fill="#006DF0"/>
<path d="M180 92.0005H172V100H180V92.0005Z" fill="#006DF0"/>
<path d="M180 100H172V108H180V100Z" fill="#006DF0"/>
<path d="M180 116H172V124H180V116Z" fill="#006DF0"/>
<path d="M180 132H172V140H180V132Z" fill="#006DF0"/>
<path d="M180 148H172V156H180V148Z" fill="#006DF0"/>
<path d="M180 180H172V188H180V180Z" fill="#006DF0"/>
<path d="M180 196H172V204H180V196Z" fill="#006DF0"/>
<path d="M180 204H172V212H180V204Z" fill="#006DF0"/>
<path d="M188 20H180V28H188V20Z" fill="#006DF0"/>
<path d="M188 36H180V44H188V36Z" fill="#006DF0"/>
<path d="M188 44.0005H180V52.0005H188V44.0005Z" fill="#006DF0"/>
<path d="M188 52.0005H180V60.0005H188V52.0005Z" fill="#006DF0"/>
<path d="M188 67.9995H180V75.9995H188V67.9995Z" fill="#006DF0"/>
<path d="M188 92.0005H180V100H188V92.0005Z" fill="#006DF0"/>
<path d="M188 124H180V132H188V124Z" fill="#006DF0"/>
<path d="M188 132H180V140H188V132Z" fill="#006DF0"/>
<path d="M188 140H180V148H188V140Z" fill="#006DF0"/>
<path d="M188 148H180V156H188V148Z" fill="#006DF0"/>
<path d="M188 156H180V164H188V156Z" fill="#006DF0"/>
<path d="M188 164H180V172H188V164Z" fill="#006DF0"/>
<path d="M188 172H180V180H188V172Z" fill="#006DF0"/>
<path d="M188 180H180V188H188V180Z" fill="#006DF0"/>
<path d="M188 196H180V204H188V196Z" fill="#006DF0"/>
<path d="M188 204H180V212H188V204Z" fill="#006DF0"/>
<path d="M196 20H188V28H196V20Z" fill="#006DF0"/>
<path d="M196 36H188V44H196V36Z" fill="#006DF0"/>
<path d="M196 44.0005H188V52.0005H196V44.0005Z" fill="#006DF0"/>
<path d="M196 52.0005H188V60.0005H196V52.0005Z" fill="#006DF0"/>
<path d="M196 67.9995H188V75.9995H196V67.9995Z" fill="#006DF0"/>
<path d="M196 92.0005H188V100H196V92.0005Z" fill="#006DF0"/>
<path d="M196 100H188V108H196V100Z" fill="#006DF0"/>
<path d="M196 108H188V116H196V108Z" fill="#006DF0"/>
<path d="M196 132H188V140H196V132Z" fill="#006DF0"/>
<path d="M196 164H188V172H196V164Z" fill="#006DF0"/>
<path d="M196 180H188V188H196V180Z" fill="#006DF0"/>
<path d="M196 188H188V196H196V188Z" fill="#006DF0"/>
<path d="M196 212H188V220H196V212Z" fill="#006DF0"/>
<path d="M204 20H196V28H204V20Z" fill="#006DF0"/>
<path d="M204 36H196V44H204V36Z" fill="#006DF0"/>
<path d="M204 44.0005H196V52.0005H204V44.0005Z" fill="#006DF0"/>
<path d="M204 52.0005H196V60.0005H204V52.0005Z" fill="#006DF0"/>
<path d="M204 67.9995H196V75.9995H204V67.9995Z" fill="#006DF0"/>
<path d="M204 92.0005H196V100H204V92.0005Z" fill="#006DF0"/>
<path d="M204 108H196V116H204V108Z" fill="#006DF0"/>
<path d="M204 132H196V140H204V132Z" fill="#006DF0"/>
<path d="M204 140H196V148H204V140Z" fill="#006DF0"/>
<path d="M204 148H196V156H204V148Z" fill="#006DF0"/>
<path d="M204 196H196V204H204V196Z" fill="#006DF0"/>
<path d="M204 204H196V212H204V204Z" fill="#006DF0"/>
<path d="M212.001 20H204.001V28H212.001V20Z" fill="#006DF0"/>
<path d="M212.001 67.9995H204.001V75.9995H212.001V67.9995Z" fill="#006DF0"/>
<path d="M212.001 92.0005H204.001V100H212.001V92.0005Z" fill="#006DF0"/>
<path d="M212.001 108H204.001V116H212.001V108Z" fill="#006DF0"/>
<path d="M212.001 124H204.001V132H212.001V124Z" fill="#006DF0"/>
<path d="M212.001 132H204.001V140H212.001V132Z" fill="#006DF0"/>
<path d="M212.001 148H204.001V156H212.001V148Z" fill="#006DF0"/>
<path d="M212.001 156H204.001V164H212.001V156Z" fill="#006DF0"/>
<path d="M212.001 188H204.001V196H212.001V188Z" fill="#006DF0"/>
<path d="M212.001 196H204.001V204H212.001V196Z" fill="#006DF0"/>
<path d="M212.001 204H204.001V212H212.001V204Z" fill="#006DF0"/>
<path d="M220 20H212V28H220V20Z" fill="#006DF0"/>
<path d="M220 27.9995H212V35.9995H220V27.9995Z" fill="#006DF0"/>
<path d="M220 36H212V44H220V36Z" fill="#006DF0"/>
<path d="M220 44.0005H212V52.0005H220V44.0005Z" fill="#006DF0"/>
<path d="M220 52.0005H212V60.0005H220V52.0005Z" fill="#006DF0"/>
<path d="M220 60H212V68H220V60Z" fill="#006DF0"/>
<path d="M220 67.9995H212V75.9995H220V67.9995Z" fill="#006DF0"/>
<path d="M220 84H212V92H220V84Z" fill="#006DF0"/>
<path d="M220 100H212V108H220V100Z" fill="#006DF0"/>
<path d="M220 108H212V116H220V108Z" fill="#006DF0"/>
<path d="M220 116H212V124H220V116Z" fill="#006DF0"/>
<path d="M220 132H212V140H220V132Z" fill="#006DF0"/>
<path d="M220 140H212V148H220V140Z" fill="#006DF0"/>
<path d="M220 164H212V172H220V164Z" fill="#006DF0"/>
<path d="M220 172H212V180H220V172Z" fill="#006DF0"/>
<path d="M220 188H212V196H220V188Z" fill="#006DF0"/>
<path d="M220 196H212V204H220V196Z" fill="#006DF0"/>
<path d="M220 204H212V212H220V204Z" fill="#006DF0"/>
<path d="M220 212H212V220H220V212Z" fill="#006DF0"/>
</svg>
