<svg width="48" height="48" viewBox="0 0 48 48" fill="none" xmlns="http://www.w3.org/2000/svg">
<path fill-rule="evenodd" clip-rule="evenodd" d="M4.5 20.25C4.5 19.8358 4.83579 19.5 5.25 19.5H33.75C34.1642 19.5 34.5 19.8358 34.5 20.25C34.5 20.6642 34.1642 21 33.75 21H6V28.5643L10.4357 33H37.5643L42 28.5643V21H38.25C37.8358 21 37.5 20.6642 37.5 20.25C37.5 19.8358 37.8358 19.5 38.25 19.5H42.75C43.1642 19.5 43.5 19.8358 43.5 20.25V28.875C43.5 29.0739 43.421 29.2647 43.2803 29.4053L38.4053 34.2803C38.2647 34.421 38.0739 34.5 37.875 34.5H10.125C9.92609 34.5 9.73532 34.421 9.59467 34.2803L4.71967 29.4053C4.57902 29.2647 4.5 29.0739 4.5 28.875V20.25Z" fill="#D09D38"/>
<path d="M12 26.25C12 25.8358 12.3358 25.5 12.75 25.5H35.25C35.6642 25.5 36 25.8358 36 26.25C36 26.6642 35.6642 27 35.25 27H12.75C12.3358 27 12 26.6642 12 26.25Z" fill="#D09D38"/>
<path d="M33.75 11.25C33.75 10.8358 34.0858 10.5 34.5 10.5C34.9142 10.5 35.25 10.8358 35.25 11.25V15.75C35.25 16.1642 34.9142 16.5 34.5 16.5C34.0858 16.5 33.75 16.1642 33.75 15.75V11.25Z" fill="#D09D38"/>
<path d="M12.75 11.25C12.75 10.8358 13.0858 10.5 13.5 10.5C13.9142 10.5 14.25 10.8358 14.25 11.25V15.75C14.25 16.1642 13.9142 16.5 13.5 16.5C13.0858 16.5 12.75 16.1642 12.75 15.75V11.25Z" fill="#D09D38"/>
<path d="M15.75 11.25C15.75 10.8358 16.0858 10.5 16.5 10.5C16.9142 10.5 17.25 10.8358 17.25 11.25V15.75C17.25 16.1642 16.9142 16.5 16.5 16.5C16.0858 16.5 15.75 16.1642 15.75 15.75V11.25Z" fill="#D09D38"/>
<path d="M26.25 11.25C26.25 10.8358 26.5858 10.5 27 10.5C27.4142 10.5 27.75 10.8358 27.75 11.25V15.75C27.75 16.1642 27.4142 16.5 27 16.5C26.5858 16.5 26.25 16.1642 26.25 15.75V11.25Z" fill="#D09D38"/>
<path d="M30 11.25C30 10.8358 30.3358 10.5 30.75 10.5C31.1642 10.5 31.5 10.8358 31.5 11.25V15.75C31.5 16.1642 31.1642 16.5 30.75 16.5C30.3358 16.5 30 16.1642 30 15.75V11.25Z" fill="#D09D38"/>
<path fill-rule="evenodd" clip-rule="evenodd" d="M26.5199 10.6739C26.8381 10.4087 27.311 10.4517 27.5762 10.7699L28.875 12.3285L30.1739 10.7699C30.439 10.4517 30.912 10.4087 31.2302 10.6739C31.5484 10.939 31.5914 11.4119 31.3262 11.7302L29.4512 13.9802C29.3087 14.1512 29.0976 14.25 28.875 14.25C28.6524 14.25 28.4413 14.1512 28.2989 13.9802L26.4239 11.7302C26.1587 11.4119 26.2017 10.939 26.5199 10.6739Z" fill="#D09D38"/>
<path fill-rule="evenodd" clip-rule="evenodd" d="M19.5 11.4375C19.5 10.9197 19.9197 10.5 20.4375 10.5H21.75C22.9926 10.5 24 11.5074 24 12.75V14.25C24 15.4926 22.9926 16.5 21.75 16.5H20.4375C19.9197 16.5 19.5 16.0803 19.5 15.5625V11.4375ZM21 12V15H21.75C22.1642 15 22.5 14.6642 22.5 14.25V12.75C22.5 12.3358 22.1642 12 21.75 12H21Z" fill="#D09D38"/>
<path d="M13.5 12.75H16.5V14.25H13.5V12.75Z" fill="#D09D38"/>
</svg>
