<svg width="48" height="48" viewBox="0 0 48 48" fill="none" xmlns="http://www.w3.org/2000/svg">
<path fill-rule="evenodd" clip-rule="evenodd" d="M4.65836 30.0792C4.91245 29.571 5.43184 29.25 6 29.25H42C42.5682 29.25 43.0876 29.571 43.3416 30.0792L47.8416 39.0792C47.9458 39.2875 48 39.5171 48 39.75V42.75C48 43.5784 47.3284 44.25 46.5 44.25H1.5C0.671573 44.25 0 43.5784 0 42.75V39.75C0 39.5171 0.0542176 39.2875 0.158359 39.0792L4.65836 30.0792ZM42 30.75H6L1.5 39.75V42.75H46.5V39.75L42 30.75Z" fill="#D09D38"/>
<path fill-rule="evenodd" clip-rule="evenodd" d="M46.5 41.25H1.5V39.75H46.5V41.25Z" fill="#D09D38"/>
<path fill-rule="evenodd" clip-rule="evenodd" d="M19.5385 35.7628C19.6406 35.4566 19.9272 35.25 20.25 35.25H27.75C28.0728 35.25 28.3594 35.4566 28.4615 35.7628L29.9615 40.2628C30.0378 40.4915 29.9994 40.743 29.8584 40.9385C29.7175 41.1341 29.4911 41.25 29.25 41.25H18.75C18.5089 41.25 18.2825 41.1341 18.1416 40.9385C18.0006 40.743 17.9623 40.4915 18.0385 40.2628L19.5385 35.7628ZM20.7906 36.75L19.7906 39.75H28.2094L27.2094 36.75H20.7906Z" fill="#D09D38"/>
<path fill-rule="evenodd" clip-rule="evenodd" d="M40.5 5.25H7.5C6.67157 5.25 6 5.92157 6 6.75V29.25H42V6.75C42 5.92157 41.3284 5.25 40.5 5.25ZM7.5 3.75C5.84315 3.75 4.5 5.09315 4.5 6.75V30.75H43.5V6.75C43.5 5.09315 42.1569 3.75 40.5 3.75H7.5Z" fill="#D09D38"/>
<path fill-rule="evenodd" clip-rule="evenodd" d="M8.25 9C8.25 8.17157 8.92157 7.5 9.75 7.5H25.1538C25.5681 7.5 25.9038 7.83579 25.9038 8.25C25.9038 8.66421 25.5681 9 25.1538 9H9.75V25.5H38.25V9H28.6154C28.2012 9 27.8654 8.66421 27.8654 8.25C27.8654 7.83579 28.2012 7.5 28.6154 7.5H38.25C39.0784 7.5 39.75 8.17157 39.75 9V25.5C39.75 26.3284 39.0784 27 38.25 27H9.75C8.92157 27 8.25 26.3284 8.25 25.5V9Z" fill="#D09D38"/>
</svg>
