<svg width="186" height="30" viewBox="0 0 186 30" fill="none" xmlns="http://www.w3.org/2000/svg">
<g clip-path="url(#clip0)">
<path d="M100.763 5.34244L103.563 9.13342L106.375 5.34244H107.583V13.3547H106.25V7.61005L103.575 11.244L100.875 7.59842V13.3547H99.5549V5.34244H100.763Z" fill="white"/>
<path d="M110.181 13.3547V5.34244H111.514V11.0986L116.018 5.34244H117.17V13.3547H115.849V7.58873L111.333 13.3547H110.181Z" fill="white"/>
<path d="M122.314 10.5793H121.083V13.3547H119.762V5.34244H122.314C123.963 5.34244 125.091 6.48206 125.091 7.96086C125.091 9.43965 123.963 10.5793 122.314 10.5793ZM122.302 6.58478H121.083V9.33886H122.302C123.251 9.33886 123.793 8.73998 123.793 7.96279C123.793 7.18173 123.251 6.58478 122.302 6.58478Z" fill="white"/>
<path d="M99.5547 24.6307V16.6185H100.887V22.3747L105.391 16.6185H106.543V24.6307H105.223V18.8648L100.707 24.6307H99.5547Z" fill="white"/>
<path d="M109.136 16.6185H110.456V19.9366H114.42V16.6185H115.74V24.6307H114.42V21.1886H110.456V24.6307H109.136V16.6185Z" fill="white"/>
<path d="M118.339 16.6185H121.106C122.541 16.6185 123.499 17.6224 123.499 18.8299C123.499 19.5528 123.194 20.0491 122.754 20.3766C123.487 20.6808 124.042 21.2914 124.042 22.2836C124.042 23.6035 122.981 24.6307 121.457 24.6307H118.341V16.6185H118.339ZM121.038 19.9928C121.761 19.9928 122.202 19.5296 122.202 18.9094C122.202 18.3221 121.761 17.826 121.038 17.826H119.661V19.9928H121.038ZM121.422 23.4233C122.281 23.4233 122.754 22.9485 122.754 22.272C122.754 21.6054 122.279 21.1208 121.422 21.1208H119.661V23.4233H121.422Z" fill="white"/>
<path d="M126.14 16.6185H130.96V17.8822H127.46V19.9366H130.283V21.2003H127.46V23.3671H130.96V24.6307H126.14V16.6185Z" fill="white"/>
<path d="M132.448 20.6248C132.448 18.2777 134.232 16.483 136.624 16.483C138.556 16.483 140.092 17.7351 140.485 19.3049H139.062C138.722 18.3901 137.753 17.7583 136.622 17.7583C134.951 17.7583 133.778 19.0103 133.778 20.6248C133.778 22.2393 134.953 23.4913 136.622 23.4913C137.751 23.4913 138.722 22.8594 139.062 21.9446H140.485C140.09 23.5126 138.554 24.7666 136.624 24.7666C134.232 24.7666 132.448 22.9718 132.448 20.6248Z" fill="white"/>
<path d="M144.075 17.8822H141.748V16.6185H147.732V17.8822H145.395V24.6307H144.075V17.8822Z" fill="white"/>
<path d="M149.609 24.6307V16.6185H150.941V22.3748L155.445 16.6185H156.597V24.6307H155.277V18.8648L150.76 24.6307H149.609Z" fill="white"/>
<path d="M166.462 23.367V26.3014H165.241V24.6307H159.19V16.6185H160.521V23.367H164.113V16.6185H165.446V23.367H166.462Z" fill="white"/>
<path d="M168.462 24.6307V16.6185H169.795V22.3747L174.299 16.6185H175.451V24.6307H174.131V18.8648L169.614 24.6307H168.462Z" fill="white"/>
<path d="M178.046 24.6307V16.6185H179.378V22.3747L183.883 16.6185H185.034V24.6307H183.714V18.8648L179.198 24.6307H178.046ZM179.774 14.2365H180.642C180.642 14.9129 181.026 15.3316 181.647 15.3316C182.267 15.3316 182.651 14.9149 182.651 14.2365H183.52C183.52 15.3878 182.684 16.1106 181.645 16.1106C180.609 16.1106 179.774 15.3878 179.774 14.2365Z" fill="white"/>
<path d="M49.8016 13.0147C50.5885 13.315 51.2926 13.7213 51.8628 14.2391C52.433 14.7826 52.8919 15.4348 53.2455 16.17C53.5704 16.9052 53.733 17.7205 53.733 18.6188C53.733 19.5169 53.5704 20.3065 53.2455 21.0388C52.8919 21.774 52.433 22.4262 51.8628 22.944C51.2926 23.4875 50.5885 23.8966 49.8016 24.1942C48.9892 24.4945 48.1197 24.6575 47.1731 24.6575H37.7056V5.34244H52.0795V9.09564H41.6626V12.5771H47.1731C48.1226 12.5798 48.9892 12.7172 49.8016 13.0147ZM49.1517 16.8251C48.6357 16.416 47.96 16.1985 47.119 16.1985H41.6626V21.013H47.119C47.96 21.013 48.6357 20.7956 49.1517 20.3866C49.6678 19.9775 49.91 19.4082 49.91 18.6188C49.91 17.8292 49.6678 17.2313 49.1517 16.8251Z" fill="white"/>
<path d="M61.1194 24.6575H57.3289V5.34244H61.1194V13.5297L67.8615 5.34244H72.5741L64.8843 14.6195L74.1782 24.6575H69.2288L61.1194 15.8982V24.6575Z" fill="white"/>
<path d="M80.0029 24.1722C78.7807 23.6555 77.7212 22.9503 76.8245 22.054C75.9278 21.1576 75.2223 20.127 74.7055 18.9052C74.1886 17.6833 73.9458 16.3816 73.9458 14.9971C73.9458 13.6126 74.1915 12.3109 74.7055 11.0891C75.2223 9.86724 75.9278 8.8081 76.8245 7.91172C77.7212 7.01535 78.7807 6.31025 80.0029 5.79355C81.2252 5.27685 82.5817 5.03423 84.0496 5.03423C85.1348 5.03423 86.1943 5.19693 87.1995 5.52237C88.2048 5.87635 89.1272 6.33595 89.9697 6.93543C90.7836 7.56062 91.4918 8.26576 92.0886 9.1079C92.6855 9.95003 93.1196 10.9007 93.3909 11.9311H89.1272C88.9359 11.443 88.6646 11.0091 88.3133 10.6294C87.9592 10.2497 87.5537 9.92432 87.091 9.65312C86.6284 9.40762 86.1686 9.19063 85.6518 9.05647C85.1349 8.91943 84.5922 8.8395 84.0496 8.8395C83.1271 8.8395 82.2848 9.00225 81.5508 9.30199C80.7911 9.62743 80.14 10.0613 79.5945 10.6323C79.052 11.2032 78.6436 11.8541 78.3466 12.5878C78.0468 13.3214 77.9125 14.135 77.9125 15.0029C77.9125 15.8707 78.0496 16.6871 78.3466 17.4179C78.6465 18.1515 79.052 18.8025 79.5945 19.3734C80.1371 19.9443 80.7883 20.3783 81.5508 20.6752C82.2848 21.0006 83.1271 21.1633 84.0496 21.1633C84.5922 21.1633 85.1349 21.0805 85.6518 20.9464C86.1686 20.8093 86.6284 20.5924 87.091 20.3212C87.5537 20.0757 87.9592 19.7503 88.3133 19.3705C88.6674 18.9909 88.9387 18.5569 89.1272 18.0688H93.3909C93.1196 19.0993 92.6855 20.0243 92.0886 20.8635C91.4918 21.7057 90.7864 22.4394 89.9697 23.036C89.1272 23.6611 88.2048 24.1208 87.1995 24.4491C86.1943 24.8031 85.1348 24.9657 84.0496 24.9657C82.5846 24.96 81.2252 24.6888 80.0029 24.1722Z" fill="white"/>
<mask id="mask0" mask-type="alpha" maskUnits="userSpaceOnUse" x="0" y="0" width="30" height="30">
<path d="M15 30C23.2843 30 30 23.2843 30 15C30 6.71573 23.2843 0 15 0C6.71573 0 0 6.71573 0 15C0 23.2843 6.71573 30 15 30Z" fill="#C4C4C4"/>
</mask>
<g mask="url(#mask0)">
<path d="M22.3369 1.59685C29.8312 5.82613 32.547 15.2077 28.4024 22.5524C24.2577 29.897 14.823 32.42 7.32883 28.1907C-0.165378 23.9614 -2.88125 14.5799 1.2634 7.23523C5.40805 -0.109422 14.8428 -2.63243 22.3369 1.59685Z" fill="url(#paint0_linear)"/>
<path d="M22.3369 1.59685C29.8312 5.82613 32.547 15.2077 28.4024 22.5524C24.2577 29.897 14.823 32.42 7.32883 28.1907C-0.165378 23.9614 -2.88125 14.5799 1.2634 7.23523C5.40805 -0.109422 14.8428 -2.63243 22.3369 1.59685Z" fill="url(#paint1_linear)"/>
<path d="M8.0149 20.8146C2.35882 15.2707 1.81762 7.09751 6.80457 2.56121C11.7915 -1.9751 20.4193 -1.15836 26.0754 4.38557C31.7315 9.9295 32.2727 18.1008 27.2838 22.639C22.2948 27.1773 13.669 26.3586 8.0149 20.8146Z" fill="url(#paint2_radial)"/>
<path d="M13.9631 15.0348C8.21111 11.7417 5.4623 6.1552 7.82265 2.56038C10.183 -1.03443 16.7612 -1.28093 22.5132 2.01219C28.2652 5.30529 31.014 10.8917 28.6517 14.4885C26.2894 18.0854 19.7151 18.3299 13.9631 15.0348Z" fill="url(#paint3_radial)"/>
</g>
</g>
<defs>
<linearGradient id="paint0_linear" x1="14.3475" y1="30.2397" x2="14.8563" y2="1.72134" gradientUnits="userSpaceOnUse">
<stop stop-color="#4581E9"/>
<stop offset="0.479167" stop-color="#80ACF0"/>
<stop offset="1" stop-color="white"/>
</linearGradient>
<linearGradient id="paint1_linear" x1="38.8736" y1="29.9563" x2="12.798" y2="6.58426" gradientUnits="userSpaceOnUse">
<stop stop-color="#4581E9"/>
<stop offset="1" stop-color="#4581E9" stop-opacity="0"/>
</linearGradient>
<radialGradient id="paint2_radial" cx="0" cy="0" r="1" gradientUnits="userSpaceOnUse" gradientTransform="translate(33.9145 16.7173) rotate(-156.356) scale(35.975 74.1751)">
<stop offset="0.0969745" stop-color="#4581E9"/>
<stop offset="0.459935" stop-color="#80ACF0"/>
<stop offset="0.794216" stop-color="#F0F6FD"/>
</radialGradient>
<radialGradient id="paint3_radial" cx="0" cy="0" r="1" gradientUnits="userSpaceOnUse" gradientTransform="translate(45.6542 2.74705) rotate(176.049) scale(31.645 37.9577)">
<stop stop-color="#4581E9"/>
<stop offset="0.536835" stop-color="#87B1F0"/>
<stop offset="0.805657" stop-color="#CCE0FD"/>
<stop offset="1" stop-color="#F0F6FD"/>
</radialGradient>
<clipPath id="clip0">
<rect width="185.034" height="30" fill="white"/>
</clipPath>
</defs>
</svg>
