<svg width="48" height="48" viewBox="0 0 48 48" fill="none" xmlns="http://www.w3.org/2000/svg">
<path fill-rule="evenodd" clip-rule="evenodd" d="M33 1.5H15C14.1716 1.5 13.5 2.17157 13.5 3V45C13.5 45.8284 14.1716 46.5 15 46.5H33C33.8284 46.5 34.5 45.8284 34.5 45V3C34.5 2.17157 33.8284 1.5 33 1.5ZM15 0C13.3431 0 12 1.34315 12 3V45C12 46.6569 13.3431 48 15 48H33C34.6569 48 36 46.6569 36 45V3C36 1.34315 34.6569 0 33 0H15Z" fill="#D09D38"/>
<path fill-rule="evenodd" clip-rule="evenodd" d="M24 42C23.5858 42 23.25 42.3358 23.25 42.75C23.25 43.1642 23.5858 43.5 24 43.5C24.4142 43.5 24.75 43.1642 24.75 42.75C24.75 42.3358 24.4142 42 24 42ZM21.75 42.75C21.75 41.5074 22.7574 40.5 24 40.5C25.2426 40.5 26.25 41.5074 26.25 42.75C26.25 43.9926 25.2426 45 24 45C22.7574 45 21.75 43.9926 21.75 42.75Z" fill="#D09D38"/>
<path fill-rule="evenodd" clip-rule="evenodd" d="M31.5 6.75C31.5 6.33579 31.8358 6 32.25 6H35.25C35.6642 6 36 6.33579 36 6.75C36 7.16421 35.6642 7.5 35.25 7.5H32.25C31.8358 7.5 31.5 7.16421 31.5 6.75Z" fill="#D09D38"/>
<path fill-rule="evenodd" clip-rule="evenodd" d="M12 6.75C12 6.33579 12.3358 6 12.75 6H29.25C29.6642 6 30 6.33579 30 6.75C30 7.16421 29.6642 7.5 29.25 7.5H12.75C12.3358 7.5 12 7.16421 12 6.75Z" fill="#D09D38"/>
<path d="M22.875 3.75C22.875 3.33579 23.2108 3 23.625 3H26.625C27.0392 3 27.375 3.33579 27.375 3.75C27.375 4.16421 27.0392 4.5 26.625 4.5H23.625C23.2108 4.5 22.875 4.16421 22.875 3.75Z" fill="#D09D38"/>
<path d="M22.125 3.75C22.125 4.16421 21.7892 4.5 21.375 4.5C20.9608 4.5 20.625 4.16421 20.625 3.75C20.625 3.33579 20.9608 3 21.375 3C21.7892 3 22.125 3.33579 22.125 3.75Z" fill="#D09D38"/>
</svg>
