<svg width="48" height="48" viewBox="0 0 48 48" fill="none" xmlns="http://www.w3.org/2000/svg">
<path fill-rule="evenodd" clip-rule="evenodd" d="M19.5 19.0492V28.9506L28.4113 23.9999L19.5 19.0492ZM19.1142 17.1189C18.6143 16.8412 18 17.2027 18 17.7745V30.2252C18 30.7971 18.6143 31.1586 19.1142 30.8809L30.3199 24.6555C30.8342 24.3697 30.8342 23.63 30.3199 23.3443L19.1142 17.1189Z" fill="#D09D38"/>
<path fill-rule="evenodd" clip-rule="evenodd" d="M0 6.75C0 6.33579 0.335786 6 0.75 6H29.25C29.6642 6 30 6.33579 30 6.75C30 7.16421 29.6642 7.5 29.25 7.5H1.5V40.5H46.5V7.5H33.75C33.3358 7.5 33 7.16421 33 6.75C33 6.33579 33.3358 6 33.75 6H47.25C47.6642 6 48 6.33579 48 6.75V41.25C48 41.6642 47.6642 42 47.25 42H0.75C0.335786 42 0 41.6642 0 41.25V6.75Z" fill="#D09D38"/>
</svg>
