<svg width="48" height="48" viewBox="0 0 48 48" fill="none" xmlns="http://www.w3.org/2000/svg">
<path d="M1.92 0H0V1.92H1.92V0Z" fill="#D09D38"/>
<path d="M1.92 1.91992H0V3.83992H1.92V1.91992Z" fill="#D09D38"/>
<path d="M1.92 3.83984H0V5.75984H1.92V3.83984Z" fill="#D09D38"/>
<path d="M1.92 5.75977H0V7.67977H1.92V5.75977Z" fill="#D09D38"/>
<path d="M1.92 7.68018H0V9.60018H1.92V7.68018Z" fill="#D09D38"/>
<path d="M1.92 9.6001H0V11.5201H1.92V9.6001Z" fill="#D09D38"/>
<path d="M1.92 11.52H0V13.44H1.92V11.52Z" fill="#D09D38"/>
<path d="M1.92 15.3599H0V17.2799H1.92V15.3599Z" fill="#D09D38"/>
<path d="M1.92 19.2002H0V21.1202H1.92V19.2002Z" fill="#D09D38"/>
<path d="M1.92 21.1201H0V23.0401H1.92V21.1201Z" fill="#D09D38"/>
<path d="M1.92 34.5601H0V36.4801H1.92V34.5601Z" fill="#D09D38"/>
<path d="M1.92 36.48H0V38.4H1.92V36.48Z" fill="#D09D38"/>
<path d="M1.92 38.3999H0V40.3199H1.92V38.3999Z" fill="#D09D38"/>
<path d="M1.92 40.3198H0V42.2398H1.92V40.3198Z" fill="#D09D38"/>
<path d="M1.92 42.2402H0V44.1602H1.92V42.2402Z" fill="#D09D38"/>
<path d="M1.92 44.1602H0V46.0802H1.92V44.1602Z" fill="#D09D38"/>
<path d="M1.92 46.0801H0V48.0001H1.92V46.0801Z" fill="#D09D38"/>
<path d="M3.83992 0H1.91992V1.92H3.83992V0Z" fill="#D09D38"/>
<path d="M3.83992 11.52H1.91992V13.44H3.83992V11.52Z" fill="#D09D38"/>
<path d="M3.83992 15.3599H1.91992V17.2799H3.83992V15.3599Z" fill="#D09D38"/>
<path d="M3.83992 19.2002H1.91992V21.1202H3.83992V19.2002Z" fill="#D09D38"/>
<path d="M3.83992 21.1201H1.91992V23.0401H3.83992V21.1201Z" fill="#D09D38"/>
<path d="M3.83992 24.96H1.91992V26.88H3.83992V24.96Z" fill="#D09D38"/>
<path d="M3.83992 28.7998H1.91992V30.7198H3.83992V28.7998Z" fill="#D09D38"/>
<path d="M3.83992 30.7202H1.91992V32.6402H3.83992V30.7202Z" fill="#D09D38"/>
<path d="M3.83992 34.5601H1.91992V36.4801H3.83992V34.5601Z" fill="#D09D38"/>
<path d="M3.83992 46.0801H1.91992V48.0001H3.83992V46.0801Z" fill="#D09D38"/>
<path d="M5.75984 0H3.83984V1.92H5.75984V0Z" fill="#D09D38"/>
<path d="M5.75984 3.83984H3.83984V5.75984H5.75984V3.83984Z" fill="#D09D38"/>
<path d="M5.75984 5.75977H3.83984V7.67977H5.75984V5.75977Z" fill="#D09D38"/>
<path d="M5.75984 7.68018H3.83984V9.60018H5.75984V7.68018Z" fill="#D09D38"/>
<path d="M5.75984 11.52H3.83984V13.44H5.75984V11.52Z" fill="#D09D38"/>
<path d="M5.75984 28.7998H3.83984V30.7198H5.75984V28.7998Z" fill="#D09D38"/>
<path d="M5.75984 34.5601H3.83984V36.4801H5.75984V34.5601Z" fill="#D09D38"/>
<path d="M5.75984 38.3999H3.83984V40.3199H5.75984V38.3999Z" fill="#D09D38"/>
<path d="M5.75984 40.3198H3.83984V42.2398H5.75984V40.3198Z" fill="#D09D38"/>
<path d="M5.75984 42.2402H3.83984V44.1602H5.75984V42.2402Z" fill="#D09D38"/>
<path d="M5.75984 46.0801H3.83984V48.0001H5.75984V46.0801Z" fill="#D09D38"/>
<path d="M7.67977 0H5.75977V1.92H7.67977V0Z" fill="#D09D38"/>
<path d="M7.67977 3.83984H5.75977V5.75984H7.67977V3.83984Z" fill="#D09D38"/>
<path d="M7.67977 5.75977H5.75977V7.67977H7.67977V5.75977Z" fill="#D09D38"/>
<path d="M7.67977 7.68018H5.75977V9.60018H7.67977V7.68018Z" fill="#D09D38"/>
<path d="M7.67977 11.52H5.75977V13.44H7.67977V11.52Z" fill="#D09D38"/>
<path d="M7.67977 15.3599H5.75977V17.2799H7.67977V15.3599Z" fill="#D09D38"/>
<path d="M7.67977 21.1201H5.75977V23.0401H7.67977V21.1201Z" fill="#D09D38"/>
<path d="M7.67977 23.04H5.75977V24.96H7.67977V23.04Z" fill="#D09D38"/>
<path d="M7.67977 28.7998H5.75977V30.7198H7.67977V28.7998Z" fill="#D09D38"/>
<path d="M7.67977 34.5601H5.75977V36.4801H7.67977V34.5601Z" fill="#D09D38"/>
<path d="M7.67977 38.3999H5.75977V40.3199H7.67977V38.3999Z" fill="#D09D38"/>
<path d="M7.67977 40.3198H5.75977V42.2398H7.67977V40.3198Z" fill="#D09D38"/>
<path d="M7.67977 42.2402H5.75977V44.1602H7.67977V42.2402Z" fill="#D09D38"/>
<path d="M7.67977 46.0801H5.75977V48.0001H7.67977V46.0801Z" fill="#D09D38"/>
<path d="M9.59969 0H7.67969V1.92H9.59969V0Z" fill="#D09D38"/>
<path d="M9.59969 3.83984H7.67969V5.75984H9.59969V3.83984Z" fill="#D09D38"/>
<path d="M9.59969 5.75977H7.67969V7.67977H9.59969V5.75977Z" fill="#D09D38"/>
<path d="M9.59969 7.68018H7.67969V9.60018H9.59969V7.68018Z" fill="#D09D38"/>
<path d="M9.59969 11.52H7.67969V13.44H9.59969V11.52Z" fill="#D09D38"/>
<path d="M9.59969 15.3599H7.67969V17.2799H9.59969V15.3599Z" fill="#D09D38"/>
<path d="M9.59969 19.2002H7.67969V21.1202H9.59969V19.2002Z" fill="#D09D38"/>
<path d="M9.59969 23.04H7.67969V24.96H9.59969V23.04Z" fill="#D09D38"/>
<path d="M9.59969 24.96H7.67969V26.88H9.59969V24.96Z" fill="#D09D38"/>
<path d="M9.59969 26.8799H7.67969V28.7999H9.59969V26.8799Z" fill="#D09D38"/>
<path d="M9.59969 28.7998H7.67969V30.7198H9.59969V28.7998Z" fill="#D09D38"/>
<path d="M9.59969 34.5601H7.67969V36.4801H9.59969V34.5601Z" fill="#D09D38"/>
<path d="M9.59969 38.3999H7.67969V40.3199H9.59969V38.3999Z" fill="#D09D38"/>
<path d="M9.59969 40.3198H7.67969V42.2398H9.59969V40.3198Z" fill="#D09D38"/>
<path d="M9.59969 42.2402H7.67969V44.1602H9.59969V42.2402Z" fill="#D09D38"/>
<path d="M9.59969 46.0801H7.67969V48.0001H9.59969V46.0801Z" fill="#D09D38"/>
<path d="M11.5196 0H9.59961V1.92H11.5196V0Z" fill="#D09D38"/>
<path d="M11.5196 11.52H9.59961V13.44H11.5196V11.52Z" fill="#D09D38"/>
<path d="M11.5196 23.04H9.59961V24.96H11.5196V23.04Z" fill="#D09D38"/>
<path d="M11.5196 30.7202H9.59961V32.6402H11.5196V30.7202Z" fill="#D09D38"/>
<path d="M11.5196 34.5601H9.59961V36.4801H11.5196V34.5601Z" fill="#D09D38"/>
<path d="M11.5196 46.0801H9.59961V48.0001H11.5196V46.0801Z" fill="#D09D38"/>
<path d="M13.4395 0H11.5195V1.92H13.4395V0Z" fill="#D09D38"/>
<path d="M13.4395 1.91992H11.5195V3.83992H13.4395V1.91992Z" fill="#D09D38"/>
<path d="M13.4395 3.83984H11.5195V5.75984H13.4395V3.83984Z" fill="#D09D38"/>
<path d="M13.4395 5.75977H11.5195V7.67977H13.4395V5.75977Z" fill="#D09D38"/>
<path d="M13.4395 7.68018H11.5195V9.60018H13.4395V7.68018Z" fill="#D09D38"/>
<path d="M13.4395 9.6001H11.5195V11.5201H13.4395V9.6001Z" fill="#D09D38"/>
<path d="M13.4395 11.52H11.5195V13.44H13.4395V11.52Z" fill="#D09D38"/>
<path d="M13.4395 15.3599H11.5195V17.2799H13.4395V15.3599Z" fill="#D09D38"/>
<path d="M13.4395 19.2002H11.5195V21.1202H13.4395V19.2002Z" fill="#D09D38"/>
<path d="M13.4395 23.04H11.5195V24.96H13.4395V23.04Z" fill="#D09D38"/>
<path d="M13.4395 26.8799H11.5195V28.7999H13.4395V26.8799Z" fill="#D09D38"/>
<path d="M13.4395 30.7202H11.5195V32.6402H13.4395V30.7202Z" fill="#D09D38"/>
<path d="M13.4395 34.5601H11.5195V36.4801H13.4395V34.5601Z" fill="#D09D38"/>
<path d="M13.4395 36.48H11.5195V38.4H13.4395V36.48Z" fill="#D09D38"/>
<path d="M13.4395 38.3999H11.5195V40.3199H13.4395V38.3999Z" fill="#D09D38"/>
<path d="M13.4395 40.3198H11.5195V42.2398H13.4395V40.3198Z" fill="#D09D38"/>
<path d="M13.4395 42.2402H11.5195V44.1602H13.4395V42.2402Z" fill="#D09D38"/>
<path d="M13.4395 44.1602H11.5195V46.0802H13.4395V44.1602Z" fill="#D09D38"/>
<path d="M13.4395 46.0801H11.5195V48.0001H13.4395V46.0801Z" fill="#D09D38"/>
<path d="M15.3604 17.2798H13.4404V19.1998H15.3604V17.2798Z" fill="#D09D38"/>
<path d="M15.3604 19.2002H13.4404V21.1202H15.3604V19.2002Z" fill="#D09D38"/>
<path d="M15.3604 23.04H13.4404V24.96H15.3604V23.04Z" fill="#D09D38"/>
<path d="M15.3604 28.7998H13.4404V30.7198H15.3604V28.7998Z" fill="#D09D38"/>
<path d="M15.3604 30.7202H13.4404V32.6402H15.3604V30.7202Z" fill="#D09D38"/>
<path d="M17.2804 0H15.3604V1.92H17.2804V0Z" fill="#D09D38"/>
<path d="M17.2804 11.52H15.3604V13.44H17.2804V11.52Z" fill="#D09D38"/>
<path d="M17.2804 13.4399H15.3604V15.3599H17.2804V13.4399Z" fill="#D09D38"/>
<path d="M17.2804 19.2002H15.3604V21.1202H17.2804V19.2002Z" fill="#D09D38"/>
<path d="M17.2804 21.1201H15.3604V23.0401H17.2804V21.1201Z" fill="#D09D38"/>
<path d="M17.2804 24.96H15.3604V26.88H17.2804V24.96Z" fill="#D09D38"/>
<path d="M17.2804 28.7998H15.3604V30.7198H17.2804V28.7998Z" fill="#D09D38"/>
<path d="M17.2804 30.7202H15.3604V32.6402H17.2804V30.7202Z" fill="#D09D38"/>
<path d="M17.2804 32.6401H15.3604V34.5601H17.2804V32.6401Z" fill="#D09D38"/>
<path d="M17.2804 38.3999H15.3604V40.3199H17.2804V38.3999Z" fill="#D09D38"/>
<path d="M17.2804 40.3198H15.3604V42.2398H17.2804V40.3198Z" fill="#D09D38"/>
<path d="M17.2804 44.1602H15.3604V46.0802H17.2804V44.1602Z" fill="#D09D38"/>
<path d="M17.2804 46.0801H15.3604V48.0001H17.2804V46.0801Z" fill="#D09D38"/>
<path d="M19.2003 0H17.2803V1.92H19.2003V0Z" fill="#D09D38"/>
<path d="M19.2003 3.83984H17.2803V5.75984H19.2003V3.83984Z" fill="#D09D38"/>
<path d="M19.2003 9.6001H17.2803V11.5201H19.2003V9.6001Z" fill="#D09D38"/>
<path d="M19.2003 13.4399H17.2803V15.3599H19.2003V13.4399Z" fill="#D09D38"/>
<path d="M19.2003 15.3599H17.2803V17.2799H19.2003V15.3599Z" fill="#D09D38"/>
<path d="M19.2003 19.2002H17.2803V21.1202H19.2003V19.2002Z" fill="#D09D38"/>
<path d="M19.2003 23.04H17.2803V24.96H19.2003V23.04Z" fill="#D09D38"/>
<path d="M19.2003 24.96H17.2803V26.88H19.2003V24.96Z" fill="#D09D38"/>
<path d="M19.2003 28.7998H17.2803V30.7198H19.2003V28.7998Z" fill="#D09D38"/>
<path d="M19.2003 30.7202H17.2803V32.6402H19.2003V30.7202Z" fill="#D09D38"/>
<path d="M19.2003 34.5601H17.2803V36.4801H19.2003V34.5601Z" fill="#D09D38"/>
<path d="M19.2003 36.48H17.2803V38.4H19.2003V36.48Z" fill="#D09D38"/>
<path d="M19.2003 38.3999H17.2803V40.3199H19.2003V38.3999Z" fill="#D09D38"/>
<path d="M21.1202 0H19.2002V1.92H21.1202V0Z" fill="#D09D38"/>
<path d="M21.1202 5.75977H19.2002V7.67977H21.1202V5.75977Z" fill="#D09D38"/>
<path d="M21.1202 7.68018H19.2002V9.60018H21.1202V7.68018Z" fill="#D09D38"/>
<path d="M21.1202 11.52H19.2002V13.44H21.1202V11.52Z" fill="#D09D38"/>
<path d="M21.1202 17.2798H19.2002V19.1998H21.1202V17.2798Z" fill="#D09D38"/>
<path d="M21.1202 23.04H19.2002V24.96H21.1202V23.04Z" fill="#D09D38"/>
<path d="M21.1202 24.96H19.2002V26.88H21.1202V24.96Z" fill="#D09D38"/>
<path d="M21.1202 28.7998H19.2002V30.7198H21.1202V28.7998Z" fill="#D09D38"/>
<path d="M21.1202 38.3999H19.2002V40.3199H21.1202V38.3999Z" fill="#D09D38"/>
<path d="M21.1202 42.2402H19.2002V44.1602H21.1202V42.2402Z" fill="#D09D38"/>
<path d="M21.1202 44.1602H19.2002V46.0802H21.1202V44.1602Z" fill="#D09D38"/>
<path d="M23.0401 0H21.1201V1.92H23.0401V0Z" fill="#D09D38"/>
<path d="M23.0401 1.91992H21.1201V3.83992H23.0401V1.91992Z" fill="#D09D38"/>
<path d="M23.0401 3.83984H21.1201V5.75984H23.0401V3.83984Z" fill="#D09D38"/>
<path d="M23.0401 5.75977H21.1201V7.67977H23.0401V5.75977Z" fill="#D09D38"/>
<path d="M23.0401 7.68018H21.1201V9.60018H23.0401V7.68018Z" fill="#D09D38"/>
<path d="M23.0401 9.6001H21.1201V11.5201H23.0401V9.6001Z" fill="#D09D38"/>
<path d="M23.0401 30.7202H21.1201V32.6402H23.0401V30.7202Z" fill="#D09D38"/>
<path d="M23.0401 32.6401H21.1201V34.5601H23.0401V32.6401Z" fill="#D09D38"/>
<path d="M23.0401 36.48H21.1201V38.4H23.0401V36.48Z" fill="#D09D38"/>
<path d="M23.0401 38.3999H21.1201V40.3199H23.0401V38.3999Z" fill="#D09D38"/>
<path d="M23.0401 42.2402H21.1201V44.1602H23.0401V42.2402Z" fill="#D09D38"/>
<path d="M23.0401 44.1602H21.1201V46.0802H23.0401V44.1602Z" fill="#D09D38"/>
<path d="M23.0401 46.0801H21.1201V48.0001H23.0401V46.0801Z" fill="#D09D38"/>
<path d="M24.96 1.91992H23.04V3.83992H24.96V1.91992Z" fill="#D09D38"/>
<path d="M24.96 7.68018H23.04V9.60018H24.96V7.68018Z" fill="#D09D38"/>
<path d="M24.96 11.52H23.04V13.44H24.96V11.52Z" fill="#D09D38"/>
<path d="M24.96 13.4399H23.04V15.3599H24.96V13.4399Z" fill="#D09D38"/>
<path d="M24.96 15.3599H23.04V17.2799H24.96V15.3599Z" fill="#D09D38"/>
<path d="M24.96 19.2002H23.04V21.1202H24.96V19.2002Z" fill="#D09D38"/>
<path d="M24.96 24.96H23.04V26.88H24.96V24.96Z" fill="#D09D38"/>
<path d="M24.96 28.7998H23.04V30.7198H24.96V28.7998Z" fill="#D09D38"/>
<path d="M24.96 30.7202H23.04V32.6402H24.96V30.7202Z" fill="#D09D38"/>
<path d="M24.96 34.5601H23.04V36.4801H24.96V34.5601Z" fill="#D09D38"/>
<path d="M24.96 38.3999H23.04V40.3199H24.96V38.3999Z" fill="#D09D38"/>
<path d="M24.96 40.3198H23.04V42.2398H24.96V40.3198Z" fill="#D09D38"/>
<path d="M26.88 0H24.96V1.92H26.88V0Z" fill="#D09D38"/>
<path d="M26.88 3.83984H24.96V5.75984H26.88V3.83984Z" fill="#D09D38"/>
<path d="M26.88 5.75977H24.96V7.67977H26.88V5.75977Z" fill="#D09D38"/>
<path d="M26.88 7.68018H24.96V9.60018H26.88V7.68018Z" fill="#D09D38"/>
<path d="M26.88 9.6001H24.96V11.5201H26.88V9.6001Z" fill="#D09D38"/>
<path d="M26.88 13.4399H24.96V15.3599H26.88V13.4399Z" fill="#D09D38"/>
<path d="M26.88 24.96H24.96V26.88H26.88V24.96Z" fill="#D09D38"/>
<path d="M26.88 30.7202H24.96V32.6402H26.88V30.7202Z" fill="#D09D38"/>
<path d="M26.88 32.6401H24.96V34.5601H26.88V32.6401Z" fill="#D09D38"/>
<path d="M26.88 36.48H24.96V38.4H26.88V36.48Z" fill="#D09D38"/>
<path d="M26.88 42.2402H24.96V44.1602H26.88V42.2402Z" fill="#D09D38"/>
<path d="M28.7999 0H26.8799V1.92H28.7999V0Z" fill="#D09D38"/>
<path d="M28.7999 1.91992H26.8799V3.83992H28.7999V1.91992Z" fill="#D09D38"/>
<path d="M28.7999 3.83984H26.8799V5.75984H28.7999V3.83984Z" fill="#D09D38"/>
<path d="M28.7999 7.68018H26.8799V9.60018H28.7999V7.68018Z" fill="#D09D38"/>
<path d="M28.7999 11.52H26.8799V13.44H28.7999V11.52Z" fill="#D09D38"/>
<path d="M28.7999 15.3599H26.8799V17.2799H28.7999V15.3599Z" fill="#D09D38"/>
<path d="M28.7999 17.2798H26.8799V19.1998H28.7999V17.2798Z" fill="#D09D38"/>
<path d="M28.7999 21.1201H26.8799V23.0401H28.7999V21.1201Z" fill="#D09D38"/>
<path d="M28.7999 28.7998H26.8799V30.7198H28.7999V28.7998Z" fill="#D09D38"/>
<path d="M28.7999 30.7202H26.8799V32.6402H28.7999V30.7202Z" fill="#D09D38"/>
<path d="M28.7999 36.48H26.8799V38.4H28.7999V36.48Z" fill="#D09D38"/>
<path d="M28.7999 38.3999H26.8799V40.3199H28.7999V38.3999Z" fill="#D09D38"/>
<path d="M28.7999 42.2402H26.8799V44.1602H28.7999V42.2402Z" fill="#D09D38"/>
<path d="M30.7198 3.83984H28.7998V5.75984H30.7198V3.83984Z" fill="#D09D38"/>
<path d="M30.7198 13.4399H28.7998V15.3599H30.7198V13.4399Z" fill="#D09D38"/>
<path d="M30.7198 15.3599H28.7998V17.2799H30.7198V15.3599Z" fill="#D09D38"/>
<path d="M30.7198 17.2798H28.7998V19.1998H30.7198V17.2798Z" fill="#D09D38"/>
<path d="M30.7198 19.2002H28.7998V21.1202H30.7198V19.2002Z" fill="#D09D38"/>
<path d="M30.7198 21.1201H28.7998V23.0401H30.7198V21.1201Z" fill="#D09D38"/>
<path d="M30.7198 23.04H28.7998V24.96H30.7198V23.04Z" fill="#D09D38"/>
<path d="M30.7198 24.96H28.7998V26.88H30.7198V24.96Z" fill="#D09D38"/>
<path d="M30.7198 26.8799H28.7998V28.7999H30.7198V26.8799Z" fill="#D09D38"/>
<path d="M30.7198 30.7202H28.7998V32.6402H30.7198V30.7202Z" fill="#D09D38"/>
<path d="M30.7198 32.6401H28.7998V34.5601H30.7198V32.6401Z" fill="#D09D38"/>
<path d="M30.7198 36.48H28.7998V38.4H30.7198V36.48Z" fill="#D09D38"/>
<path d="M30.7198 38.3999H28.7998V40.3199H30.7198V38.3999Z" fill="#D09D38"/>
<path d="M30.7198 40.3198H28.7998V42.2398H30.7198V40.3198Z" fill="#D09D38"/>
<path d="M30.7198 44.1602H28.7998V46.0802H30.7198V44.1602Z" fill="#D09D38"/>
<path d="M32.6397 1.91992H30.7197V3.83992H32.6397V1.91992Z" fill="#D09D38"/>
<path d="M32.6397 3.83984H30.7197V5.75984H32.6397V3.83984Z" fill="#D09D38"/>
<path d="M32.6397 5.75977H30.7197V7.67977H32.6397V5.75977Z" fill="#D09D38"/>
<path d="M32.6397 7.68018H30.7197V9.60018H32.6397V7.68018Z" fill="#D09D38"/>
<path d="M32.6397 9.6001H30.7197V11.5201H32.6397V9.6001Z" fill="#D09D38"/>
<path d="M32.6397 11.52H30.7197V13.44H32.6397V11.52Z" fill="#D09D38"/>
<path d="M32.6397 19.2002H30.7197V21.1202H32.6397V19.2002Z" fill="#D09D38"/>
<path d="M32.6397 21.1201H30.7197V23.0401H32.6397V21.1201Z" fill="#D09D38"/>
<path d="M32.6397 23.04H30.7197V24.96H32.6397V23.04Z" fill="#D09D38"/>
<path d="M32.6397 24.96H30.7197V26.88H32.6397V24.96Z" fill="#D09D38"/>
<path d="M32.6397 26.8799H30.7197V28.7999H32.6397V26.8799Z" fill="#D09D38"/>
<path d="M32.6397 30.7202H30.7197V32.6402H32.6397V30.7202Z" fill="#D09D38"/>
<path d="M32.6397 32.6401H30.7197V34.5601H32.6397V32.6401Z" fill="#D09D38"/>
<path d="M32.6397 34.5601H30.7197V36.4801H32.6397V34.5601Z" fill="#D09D38"/>
<path d="M32.6397 36.48H30.7197V38.4H32.6397V36.48Z" fill="#D09D38"/>
<path d="M32.6397 38.3999H30.7197V40.3199H32.6397V38.3999Z" fill="#D09D38"/>
<path d="M32.6397 40.3198H30.7197V42.2398H32.6397V40.3198Z" fill="#D09D38"/>
<path d="M32.6397 46.0801H30.7197V48.0001H32.6397V46.0801Z" fill="#D09D38"/>
<path d="M34.5597 17.2798H32.6396V19.1998H34.5597V17.2798Z" fill="#D09D38"/>
<path d="M34.5597 19.2002H32.6396V21.1202H34.5597V19.2002Z" fill="#D09D38"/>
<path d="M34.5597 23.04H32.6396V24.96H34.5597V23.04Z" fill="#D09D38"/>
<path d="M34.5597 26.8799H32.6396V28.7999H34.5597V26.8799Z" fill="#D09D38"/>
<path d="M34.5597 28.7998H32.6396V30.7198H34.5597V28.7998Z" fill="#D09D38"/>
<path d="M34.5597 30.7202H32.6396V32.6402H34.5597V30.7202Z" fill="#D09D38"/>
<path d="M34.5597 38.3999H32.6396V40.3199H34.5597V38.3999Z" fill="#D09D38"/>
<path d="M34.5597 40.3198H32.6396V42.2398H34.5597V40.3198Z" fill="#D09D38"/>
<path d="M34.5597 42.2402H32.6396V44.1602H34.5597V42.2402Z" fill="#D09D38"/>
<path d="M34.5597 46.0801H32.6396V48.0001H34.5597V46.0801Z" fill="#D09D38"/>
<path d="M36.4796 0H34.5596V1.92H36.4796V0Z" fill="#D09D38"/>
<path d="M36.4796 1.91992H34.5596V3.83992H36.4796V1.91992Z" fill="#D09D38"/>
<path d="M36.4796 3.83984H34.5596V5.75984H36.4796V3.83984Z" fill="#D09D38"/>
<path d="M36.4796 5.75977H34.5596V7.67977H36.4796V5.75977Z" fill="#D09D38"/>
<path d="M36.4796 7.68018H34.5596V9.60018H36.4796V7.68018Z" fill="#D09D38"/>
<path d="M36.4796 9.6001H34.5596V11.5201H36.4796V9.6001Z" fill="#D09D38"/>
<path d="M36.4796 11.52H34.5596V13.44H36.4796V11.52Z" fill="#D09D38"/>
<path d="M36.4796 15.3599H34.5596V17.2799H36.4796V15.3599Z" fill="#D09D38"/>
<path d="M36.4796 19.2002H34.5596V21.1202H36.4796V19.2002Z" fill="#D09D38"/>
<path d="M36.4796 23.04H34.5596V24.96H36.4796V23.04Z" fill="#D09D38"/>
<path d="M36.4796 28.7998H34.5596V30.7198H36.4796V28.7998Z" fill="#D09D38"/>
<path d="M36.4796 30.7202H34.5596V32.6402H36.4796V30.7202Z" fill="#D09D38"/>
<path d="M36.4796 34.5601H34.5596V36.4801H36.4796V34.5601Z" fill="#D09D38"/>
<path d="M36.4796 38.3999H34.5596V40.3199H36.4796V38.3999Z" fill="#D09D38"/>
<path d="M36.4796 40.3198H34.5596V42.2398H36.4796V40.3198Z" fill="#D09D38"/>
<path d="M38.4005 0H36.4805V1.92H38.4005V0Z" fill="#D09D38"/>
<path d="M38.4005 11.52H36.4805V13.44H38.4005V11.52Z" fill="#D09D38"/>
<path d="M38.4005 17.2798H36.4805V19.1998H38.4005V17.2798Z" fill="#D09D38"/>
<path d="M38.4005 19.2002H36.4805V21.1202H38.4005V19.2002Z" fill="#D09D38"/>
<path d="M38.4005 23.04H36.4805V24.96H38.4005V23.04Z" fill="#D09D38"/>
<path d="M38.4005 26.8799H36.4805V28.7999H38.4005V26.8799Z" fill="#D09D38"/>
<path d="M38.4005 30.7202H36.4805V32.6402H38.4005V30.7202Z" fill="#D09D38"/>
<path d="M38.4005 38.3999H36.4805V40.3199H38.4005V38.3999Z" fill="#D09D38"/>
<path d="M38.4005 42.2402H36.4805V44.1602H38.4005V42.2402Z" fill="#D09D38"/>
<path d="M38.4005 44.1602H36.4805V46.0802H38.4005V44.1602Z" fill="#D09D38"/>
<path d="M40.3204 0H38.4004V1.92H40.3204V0Z" fill="#D09D38"/>
<path d="M40.3204 3.83984H38.4004V5.75984H40.3204V3.83984Z" fill="#D09D38"/>
<path d="M40.3204 5.75977H38.4004V7.67977H40.3204V5.75977Z" fill="#D09D38"/>
<path d="M40.3204 7.68018H38.4004V9.60018H40.3204V7.68018Z" fill="#D09D38"/>
<path d="M40.3204 11.52H38.4004V13.44H40.3204V11.52Z" fill="#D09D38"/>
<path d="M40.3204 17.2798H38.4004V19.1998H40.3204V17.2798Z" fill="#D09D38"/>
<path d="M40.3204 24.96H38.4004V26.88H40.3204V24.96Z" fill="#D09D38"/>
<path d="M40.3204 26.8799H38.4004V28.7999H40.3204V26.8799Z" fill="#D09D38"/>
<path d="M40.3204 28.7998H38.4004V30.7198H40.3204V28.7998Z" fill="#D09D38"/>
<path d="M40.3204 30.7202H38.4004V32.6402H40.3204V30.7202Z" fill="#D09D38"/>
<path d="M40.3204 32.6401H38.4004V34.5601H40.3204V32.6401Z" fill="#D09D38"/>
<path d="M40.3204 34.5601H38.4004V36.4801H40.3204V34.5601Z" fill="#D09D38"/>
<path d="M40.3204 36.48H38.4004V38.4H40.3204V36.48Z" fill="#D09D38"/>
<path d="M40.3204 38.3999H38.4004V40.3199H40.3204V38.3999Z" fill="#D09D38"/>
<path d="M40.3204 42.2402H38.4004V44.1602H40.3204V42.2402Z" fill="#D09D38"/>
<path d="M40.3204 44.1602H38.4004V46.0802H40.3204V44.1602Z" fill="#D09D38"/>
<path d="M42.2403 0H40.3203V1.92H42.2403V0Z" fill="#D09D38"/>
<path d="M42.2403 3.83984H40.3203V5.75984H42.2403V3.83984Z" fill="#D09D38"/>
<path d="M42.2403 5.75977H40.3203V7.67977H42.2403V5.75977Z" fill="#D09D38"/>
<path d="M42.2403 7.68018H40.3203V9.60018H42.2403V7.68018Z" fill="#D09D38"/>
<path d="M42.2403 11.52H40.3203V13.44H42.2403V11.52Z" fill="#D09D38"/>
<path d="M42.2403 17.2798H40.3203V19.1998H42.2403V17.2798Z" fill="#D09D38"/>
<path d="M42.2403 19.2002H40.3203V21.1202H42.2403V19.2002Z" fill="#D09D38"/>
<path d="M42.2403 21.1201H40.3203V23.0401H42.2403V21.1201Z" fill="#D09D38"/>
<path d="M42.2403 26.8799H40.3203V28.7999H42.2403V26.8799Z" fill="#D09D38"/>
<path d="M42.2403 34.5601H40.3203V36.4801H42.2403V34.5601Z" fill="#D09D38"/>
<path d="M42.2403 38.3999H40.3203V40.3199H42.2403V38.3999Z" fill="#D09D38"/>
<path d="M42.2403 40.3198H40.3203V42.2398H42.2403V40.3198Z" fill="#D09D38"/>
<path d="M42.2403 46.0801H40.3203V48.0001H42.2403V46.0801Z" fill="#D09D38"/>
<path d="M44.1602 0H42.2402V1.92H44.1602V0Z" fill="#D09D38"/>
<path d="M44.1602 3.83984H42.2402V5.75984H44.1602V3.83984Z" fill="#D09D38"/>
<path d="M44.1602 5.75977H42.2402V7.67977H44.1602V5.75977Z" fill="#D09D38"/>
<path d="M44.1602 7.68018H42.2402V9.60018H44.1602V7.68018Z" fill="#D09D38"/>
<path d="M44.1602 11.52H42.2402V13.44H44.1602V11.52Z" fill="#D09D38"/>
<path d="M44.1602 17.2798H42.2402V19.1998H44.1602V17.2798Z" fill="#D09D38"/>
<path d="M44.1602 21.1201H42.2402V23.0401H44.1602V21.1201Z" fill="#D09D38"/>
<path d="M44.1602 26.8799H42.2402V28.7999H44.1602V26.8799Z" fill="#D09D38"/>
<path d="M44.1602 28.7998H42.2402V30.7198H44.1602V28.7998Z" fill="#D09D38"/>
<path d="M44.1602 30.7202H42.2402V32.6402H44.1602V30.7202Z" fill="#D09D38"/>
<path d="M44.1602 42.2402H42.2402V44.1602H44.1602V42.2402Z" fill="#D09D38"/>
<path d="M44.1602 44.1602H42.2402V46.0802H44.1602V44.1602Z" fill="#D09D38"/>
<path d="M46.0802 0H44.1602V1.92H46.0802V0Z" fill="#D09D38"/>
<path d="M46.0802 11.52H44.1602V13.44H46.0802V11.52Z" fill="#D09D38"/>
<path d="M46.0802 17.2798H44.1602V19.1998H46.0802V17.2798Z" fill="#D09D38"/>
<path d="M46.0802 21.1201H44.1602V23.0401H46.0802V21.1201Z" fill="#D09D38"/>
<path d="M46.0802 24.96H44.1602V26.88H46.0802V24.96Z" fill="#D09D38"/>
<path d="M46.0802 26.8799H44.1602V28.7999H46.0802V26.8799Z" fill="#D09D38"/>
<path d="M46.0802 30.7202H44.1602V32.6402H46.0802V30.7202Z" fill="#D09D38"/>
<path d="M46.0802 32.6401H44.1602V34.5601H46.0802V32.6401Z" fill="#D09D38"/>
<path d="M46.0802 40.3198H44.1602V42.2398H46.0802V40.3198Z" fill="#D09D38"/>
<path d="M46.0802 42.2402H44.1602V44.1602H46.0802V42.2402Z" fill="#D09D38"/>
<path d="M46.0802 44.1602H44.1602V46.0802H46.0802V44.1602Z" fill="#D09D38"/>
<path d="M48.0001 0H46.0801V1.92H48.0001V0Z" fill="#D09D38"/>
<path d="M48.0001 1.91992H46.0801V3.83992H48.0001V1.91992Z" fill="#D09D38"/>
<path d="M48.0001 3.83984H46.0801V5.75984H48.0001V3.83984Z" fill="#D09D38"/>
<path d="M48.0001 5.75977H46.0801V7.67977H48.0001V5.75977Z" fill="#D09D38"/>
<path d="M48.0001 7.68018H46.0801V9.60018H48.0001V7.68018Z" fill="#D09D38"/>
<path d="M48.0001 9.6001H46.0801V11.5201H48.0001V9.6001Z" fill="#D09D38"/>
<path d="M48.0001 11.52H46.0801V13.44H48.0001V11.52Z" fill="#D09D38"/>
<path d="M48.0001 15.3599H46.0801V17.2799H48.0001V15.3599Z" fill="#D09D38"/>
<path d="M48.0001 19.2002H46.0801V21.1202H48.0001V19.2002Z" fill="#D09D38"/>
<path d="M48.0001 21.1201H46.0801V23.0401H48.0001V21.1201Z" fill="#D09D38"/>
<path d="M48.0001 23.04H46.0801V24.96H48.0001V23.04Z" fill="#D09D38"/>
<path d="M48.0001 26.8799H46.0801V28.7999H48.0001V26.8799Z" fill="#D09D38"/>
<path d="M48.0001 28.7998H46.0801V30.7198H48.0001V28.7998Z" fill="#D09D38"/>
<path d="M48.0001 34.5601H46.0801V36.4801H48.0001V34.5601Z" fill="#D09D38"/>
<path d="M48.0001 36.48H46.0801V38.4H48.0001V36.48Z" fill="#D09D38"/>
<path d="M48.0001 40.3198H46.0801V42.2398H48.0001V40.3198Z" fill="#D09D38"/>
<path d="M48.0001 42.2402H46.0801V44.1602H48.0001V42.2402Z" fill="#D09D38"/>
<path d="M48.0001 44.1602H46.0801V46.0802H48.0001V44.1602Z" fill="#D09D38"/>
<path d="M48.0001 46.0801H46.0801V48.0001H48.0001V46.0801Z" fill="#D09D38"/>
</svg>
