<svg width="48" height="48" viewBox="0 0 48 48" fill="none" xmlns="http://www.w3.org/2000/svg">
<path fill-rule="evenodd" clip-rule="evenodd" d="M18.75 10.5C18.75 8.84315 20.0931 7.5 21.75 7.5C23.4068 7.5 24.75 8.84315 24.75 10.5V16.4535C25.962 15.8932 27.4321 16.0497 28.5 16.923C29.8039 15.8566 31.7078 15.859 33.009 16.9303L33.1286 16.8107C34.3002 15.6391 36.1997 15.6391 37.3713 16.8107C37.9339 17.3733 38.25 18.1363 38.25 18.932V30C38.25 30.4142 37.9142 30.75 37.5 30.75C37.0858 30.75 36.75 30.4142 36.75 30V18.932C36.75 18.5342 36.5919 18.1526 36.3106 17.8713C35.7248 17.2855 34.7751 17.2855 34.1893 17.8713L33.75 18.3107V24C33.75 24.4142 33.4142 24.75 33 24.75C32.5858 24.75 32.25 24.4142 32.25 24V18.2714C31.4407 17.4095 30.0593 17.4095 29.25 18.2714V24C29.25 24.4142 28.9142 24.75 28.5 24.75C28.0858 24.75 27.75 24.4142 27.75 24V18.2714C26.9407 17.4095 25.5593 17.4095 24.75 18.2714V24C24.75 24.4142 24.4142 24.75 24 24.75C23.5858 24.75 23.25 24.4142 23.25 24V10.5C23.25 9.67157 22.5784 9 21.75 9C20.9215 9 20.25 9.67157 20.25 10.5V28.3345C20.25 30.6165 17.2447 31.4489 16.0706 29.4921L13.1919 24.6943C12.8404 24.1085 12.0593 23.9555 11.5128 24.3654C11.0559 24.708 10.919 25.3336 11.191 25.8357L17.9422 38.2993C18.0348 38.4703 18.1492 38.6286 18.2825 38.7702L20.73 41.3694C21.3852 42.065 21.75 42.9846 21.75 43.9402V47.25C21.75 47.6642 21.4142 48 21 48C20.5858 48 20.25 47.6642 20.25 47.25V43.9402C20.25 43.3668 20.0311 42.8151 19.638 42.3977L17.1905 39.7985C16.9683 39.5626 16.7776 39.2988 16.6232 39.0138L9.87209 26.5502C9.24598 25.3943 9.56113 23.9541 10.6128 23.1654C11.8709 22.2218 13.669 22.574 14.4781 23.9226L17.3568 28.7204C17.7482 29.3727 18.75 29.0952 18.75 28.3345V10.5ZM37.5 33.75C37.9142 33.75 38.25 34.0858 38.25 34.5V38.2918C38.25 38.874 38.1144 39.4481 37.8541 39.9688L36.9875 41.702C36.8313 42.0144 36.75 42.3589 36.75 42.7082V47.25C36.75 47.6642 36.4142 48 36 48C35.5858 48 35.25 47.6642 35.25 47.25V42.7082C35.25 42.126 35.3855 41.5519 35.6459 41.0312L36.5124 39.298C36.6686 38.9856 36.75 38.6411 36.75 38.2918V34.5C36.75 34.0858 37.0858 33.75 37.5 33.75Z" fill="#D09D38"/>
<path fill-rule="evenodd" clip-rule="evenodd" d="M16.4467 2.63617C16.7396 2.92907 16.7396 3.40394 16.4467 3.69683C15.7503 4.39327 15.1978 5.22007 14.8209 6.13001C14.444 7.03995 14.25 8.01522 14.25 9.00014C14.25 9.98505 14.444 10.9603 14.8209 11.8703C15.1978 12.7802 15.7503 13.607 16.4467 14.3034C16.7396 14.5963 16.7396 15.0712 16.4467 15.3641C16.1538 15.657 15.6789 15.657 15.386 15.3641C14.5503 14.5284 13.8874 13.5362 13.4351 12.4443C12.9828 11.3524 12.75 10.182 12.75 9.00014C12.75 7.81824 12.9828 6.64791 13.4351 5.55598C13.8874 4.46405 14.5503 3.4719 15.386 2.63617C15.6789 2.34328 16.1538 2.34328 16.4467 2.63617Z" fill="#D09D38"/>
<path fill-rule="evenodd" clip-rule="evenodd" d="M23.3351 4.78842C22.6425 4.52775 21.8963 4.44191 21.1626 4.5385C20.4289 4.63509 19.7304 4.91114 19.1289 5.34219C18.5273 5.77324 18.0414 6.34599 17.7141 7.0097C17.3868 7.67342 17.2282 8.4076 17.2524 9.14724C17.2766 9.88687 17.4829 10.6091 17.8529 11.25C18.06 11.6087 17.9371 12.0674 17.5784 12.2745C17.2196 12.4816 16.761 12.3587 16.5538 12C16.0605 11.1455 15.7855 10.1825 15.7532 9.19632C15.7209 8.21014 15.9324 7.23122 16.3688 6.34627C16.8052 5.46132 17.4531 4.69766 18.2551 4.12292C19.0572 3.54819 19.9886 3.18012 20.9668 3.05133C21.9451 2.92254 22.94 3.037 23.8635 3.38457C24.787 3.73213 25.6105 4.30208 26.261 5.04393C26.9116 5.78577 27.3692 6.67661 27.5933 7.63754C27.8173 8.59847 27.8009 9.59983 27.5456 10.5529C27.4384 10.953 27.0271 11.1904 26.627 11.0832C26.2269 10.976 25.9895 10.5648 26.0967 10.1647C26.2882 9.44987 26.3005 8.69885 26.1324 7.97816C25.9644 7.25746 25.6212 6.58933 25.1333 6.03294C24.6453 5.47656 24.0277 5.0491 23.3351 4.78842Z" fill="#D09D38"/>
</svg>
